<svg width="20" height="20" viewBox="0 0 20 20" fill="none" xmlns="http://www.w3.org/2000/svg">
<path d="M15.382 9.37035C15.3392 9.37035 15.3032 9.33898 15.2959 9.29693C15.1784 8.63285 14.9774 8.14896 14.6427 7.81423L14.641 7.81257C14.3066 7.47817 13.8224 7.27692 13.1583 7.15941C13.1163 7.15207 13.0849 7.11602 13.0849 7.07331L13.0849 6.73627C13.0849 6.69355 13.1163 6.65751 13.1583 6.65018C13.8224 6.53275 14.3062 6.33189 14.6409 5.99721L14.6426 5.99554C14.9769 5.66118 15.1781 5.17699 15.2956 4.51292C15.3029 4.47088 15.3389 4.43951 15.3816 4.43951L15.7187 4.43953C15.7614 4.43954 15.7974 4.47091 15.8048 4.51295C15.9223 5.17704 16.1232 5.66092 16.4576 5.99532L16.4593 5.99698C16.7937 6.33138 17.2779 6.53263 17.942 6.65014C17.984 6.65748 18.0154 6.69353 18.0154 6.73624L18.0154 7.07328C18.0154 7.116 17.9841 7.15204 17.942 7.15938C17.2779 7.2768 16.7941 7.47766 16.4594 7.81235L16.4577 7.81401C16.1234 8.14837 15.9222 8.63256 15.8048 9.29663C15.7974 9.33867 15.7614 9.37004 15.7187 9.37004L15.382 9.37035Z" fill="url(#paint0_linear_39095_6770)"/>
<path d="M5.74749 8.04431C5.6778 8.04431 5.619 7.99313 5.60702 7.92453C5.41532 6.84113 5.08753 6.0517 4.54145 5.50562L4.53872 5.5029C3.99318 4.95736 3.20322 4.62902 2.11981 4.43732C2.05122 4.42534 2.00004 4.36654 2.00003 4.29685L2 3.74699C2 3.67731 2.05117 3.61851 2.11976 3.60654C3.20314 3.41497 3.99252 3.08728 4.53854 2.54127L4.54126 2.53854C5.08673 1.99307 5.41497 1.20314 5.60653 0.119764C5.6185 0.0511679 5.6773 -4.35175e-06 5.74698 2.77573e-10L6.29684 3.47793e-05C6.36653 3.91313e-05 6.42533 0.0512178 6.43731 0.119815C6.62901 1.20322 6.9568 1.99264 7.50234 2.53818L7.50506 2.54091C8.0506 3.08645 8.84057 3.41478 9.92397 3.60648C9.99257 3.61846 10.0437 3.67726 10.0438 3.74695L10.0438 4.29681C10.0438 4.3665 9.99262 4.42529 9.92402 4.43726C8.84065 4.62883 8.05126 4.95652 7.50525 5.50254L7.50253 5.50526C6.95706 6.05073 6.62882 6.84066 6.43726 7.92404C6.42528 7.99264 6.36649 8.04381 6.2968 8.0438L5.74749 8.04431Z" fill="url(#paint1_linear_39095_6770)"/>
<path d="M10.0031 19.1225C9.88911 19.1225 9.79292 19.0388 9.77333 18.9266C9.45982 17.1543 8.92367 15.8629 8.03039 14.9696L8.02594 14.9652C7.13355 14.0728 5.84128 13.5358 4.06898 13.2222C3.95677 13.2027 3.87305 13.1065 3.87305 12.9925L3.87304 12.093C3.87304 11.979 3.95676 11.8828 4.06898 11.8632C5.84127 11.5497 7.13264 11.0136 8.02591 10.1203L8.03036 10.1158C8.92274 9.22347 9.45977 7.93121 9.77325 6.15891C9.79284 6.04669 9.88903 5.96297 10.003 5.96297L10.9025 5.96298C11.0165 5.96298 11.1127 6.0467 11.1323 6.15891C11.4458 7.93122 11.982 9.2226 12.8743 10.115L12.8788 10.1194C13.7712 11.0118 15.0635 11.5489 16.8358 11.8624C16.948 11.882 17.0317 11.9782 17.0317 12.0922L17.0317 12.9917C17.0317 13.1057 16.948 13.2018 16.8358 13.2214C15.0635 13.5349 13.7721 14.0711 12.8788 14.9643L12.8744 14.9688C11.982 15.8612 11.445 17.1534 11.1315 18.9257C11.1119 19.0379 11.0157 19.1217 10.9017 19.1217L10.0022 19.1216L10.0031 19.1225Z" fill="url(#paint2_linear_39095_6770)"/>
<defs>
<linearGradient id="paint0_linear_39095_6770" x1="2.17314" y1="9.56127" x2="17.7104" y2="9.65561" gradientUnits="userSpaceOnUse">
<stop stop-color="#4338CA"/>
<stop offset="0.85" stop-color="#FF9BD3"/>
</linearGradient>
<linearGradient id="paint1_linear_39095_6770" x1="2.17314" y1="9.56127" x2="17.7104" y2="9.65561" gradientUnits="userSpaceOnUse">
<stop stop-color="#4338CA"/>
<stop offset="0.85" stop-color="#FF9BD3"/>
</linearGradient>
<linearGradient id="paint2_linear_39095_6770" x1="2.17314" y1="9.56127" x2="17.7104" y2="9.65561" gradientUnits="userSpaceOnUse">
<stop stop-color="#4338CA"/>
<stop offset="0.85" stop-color="#FF9BD3"/>
</linearGradient>
</defs>
</svg>
